PathFileType	4	(X/Y/Z)	1_2_rein_97_p0_0-661.trc
DataRate	CameraRate	NumFrames	NumMarkers	Units	OrigDataRate	OrigDataStartFrame	OrigNumFrames
60.0	60.0	6	27	m	60.0	82	662
Frame#	Time	RHip			RKnee			RAnkle			RBigToe			RSmallToe			RHeel			LHip			LKnee			LAnkle			LBigToe			LSmallToe			LHeel			Neck			Head			Nose			RShoulder			RElbow			RWrist			RThumb			RIndex			RPinky			LShoulder			LElbow			LWrist			LThumb			LIndex			LPinky			
		X1	Y1	Z1	X2	Y2	Z2	X3	Y3	Z3	X4	Y4	Z4	X5	Y5	Z5	X6	Y6	Z6	X7	Y7	Z7	X8	Y8	Z8	X9	Y9	Z9	X10	Y10	Z10	X11	Y11	Z11	X12	Y12	Z12	X13	Y13	Z13	X14	Y14	Z14	X15	Y15	Z15	X16	Y16	Z16	X17	Y17	Z17	X18	Y18	Z18	X19	Y19	Z19	X20	Y20	Z20	X21	Y21	Z21	X22	Y22	Z22	X23	Y23	Z23	X24	Y24	Z24	X25	Y25	Z25	X26	Y26	Z26	X27	Y27	Z27	
82	1.3666666666666667	0.3866598004277541	0.1861544837514267	1.0848758847008764	0.40640249549997487	0.282690641626922	1.5548782331217823	0.4052187221438402	0.36812983744524846	1.9535974799090392	0.3691441824503962	0.17105570535133538	1.9954218487033624	0.45023989383686686	0.2051835625713147	1.9966779608302256	0.3900518727401028	0.4963854430387767	2.0432692384683766	0.1660159761229365	0.22446161515962018	1.0849755778635144	0.16266725435343876	0.31349728095449203	1.579203843048174	0.18218152311388416	0.46990010537203636	1.9905762008352008	0.1606198871819442	0.23589721114398604	2.034907126568173	0.1043963433301145	0.2636249814325676	2.0006784557585275	0.18218661627347024	0.5789601759036501	2.0836049459706656	0.26544621110827654	0.16253473731737247	0.4169378706769372	0.2630651988092041	0.0902845996763901	0.16110204821570404	0.2723253346438163	0.06358277746551695	0.2912918619206536	0.4553560005712869	0.16229884826824373	0.5238140669263358	0.5444593651760741	0.20232305436735257	0.8026759713210166	0.45582040593444917	0.11493845794209903	1.0379888260710612	0.33137237682733606	0.07208567470807783	1.1293154838172825	0.3406688510965078	0.09182755897154317	1.1758665311161705	0.38179136308955636	0.16676442255537235	1.1954807346160692	0.08276184443542244	0.19579471131278142	0.5393922162530389	0.031663666283273016	0.19082549543795074	0.8198695348612757	0.14318308849593353	0.045396208827593446	1.0456910429266848	0.24236511174146946	0.01134851079980521	1.0985273450209678	0.2366014766801579	-0.029195559718584084	1.129715804282111	0.18835021629016838	-0.013918879572996748	1.1505744091737953
83	1.3833333333333333	0.394361039537566	0.19986269259223938	1.0834626872150557	0.40645389425825895	0.282594566227789	1.5547248173806172	0.4059231577612904	0.36722657963463	1.9529589834148806	0.36914185377500963	0.17085207363940882	1.9951556746607937	0.45028842840610883	0.2050613850897218	1.9965022920677358	0.3899016395472571	0.46603342393662756	2.027700779600146	0.1689871281076508	0.22602097197557652	1.076461880411508	0.16260245597405454	0.31281681357692015	1.5786033628963667	0.18210066364705227	0.46983389194528763	1.990734488646075	0.16051758478407566	0.2362508041738798	2.0349655269922406	0.09948749891079631	0.27859364637682565	2.0058892900990477	0.18220611940300913	0.579028125702705	2.083903238814387	0.2654269273253844	0.16252627635787503	0.4169981001118552	0.2630548691418494	0.09027700061305223	0.16099434104363483	0.272220677088967	0.06366526969849756	0.2912709267031766	0.4553650449169199	0.16238054312490313	0.5237793278958834	0.5484833295403112	0.213635855356649	0.8001522473914351	0.4593176074567206	0.11362545881240595	1.04444159970216	0.3343797265919304	0.08310865886623618	1.1294338764593186	0.3458898321165591	0.09531925905898637	1.1800913032662388	0.3973440088061156	0.17447433907811527	1.2007145621335773	0.08279613852921512	0.1959033188646775	0.5393206767676832	0.02723808968983226	0.18610158436670146	0.815488303563451	0.14206192025771835	0.044663319143570426	1.0375517706097597	0.23657685338996376	-0.009935756218836906	1.0936914153696633	0.2174660009760901	-0.055174446222331024	1.1159874281949438	0.18190622898972225	-0.03144134896162643	1.1401411703882005
84	1.4	0.3946328563336991	0.19374814626723622	1.0900733809896939	0.4056048135734434	0.2807000934460691	1.5504711161488522	0.4111502984871908	0.37409612791225966	1.9705083413899303	0.3684665922030581	0.19550005509414176	2.0129237273396177	0.4503105889624868	0.20588726846182012	1.996786389980487	0.3938708250559221	0.5072602421322968	2.0448198563795326	0.16532451658836245	0.22285402822672606	1.0791062999133572	0.16181203820981602	0.3106345379128239	1.5738737482651497	0.17740637801812312	0.4654795601463464	1.989217286615688	0.1597713348868618	0.22335036884552636	2.02239574387735	0.10944135069206097	0.24948385340093082	1.9921647218360796	0.18325687089724532	0.5771115235480462	2.0968737965742155	0.2652020183532404	0.1611580009110274	0.413566363046374	0.26309907649795783	0.08984448257849877	0.16089067995957787	0.27214398590960537	0.0637696405280443	0.2913148777778513	0.4557288387717177	0.16139874212331448	0.5271727887803883	0.548703400741329	0.2138461617715904	0.8001471608427705	0.469975135835627	0.12039458765733006	1.044778290873669	0.3383421697842153	0.0864554170772626	1.1167141287687692	0.36153135100148825	0.08927683382280795	1.1774239696638347	0.39827186853766355	0.17254925677573413	1.2043189966686294	0.08203928888622214	0.19741319880061017	0.5361927973299332	0.02678389382810162	0.1844037247282257	0.8117915057288564	0.13088201146669812	0.04430180893466458	1.0395209829382093	0.21558068172046377	-0.018743422826316844	1.091102331655582	0.21013461343886916	-0.06626789090289925	1.1128418164711655	0.1784493112013398	-0.0405812610274127	1.134459237336139
85	1.4166666666666667	0.3941002508794493	0.19158135955486913	1.084844041262281	0.405962158333632	0.27871078208598377	1.5539975539864985	0.4068542459697736	0.3617588631427724	1.964371125788548	0.3690652139831254	0.17116311293741568	1.9954101721508724	0.45125180081516125	0.20701467346954214	2.001342651808501	0.3902520934567069	0.49591188361783506	2.0433304077327215	0.16894399868883792	0.2094601577900413	1.0673653554999885	0.16017704012866843	0.30591298858843186	1.5633720838014342	0.1774904330220708	0.4661296946417365	1.9889232277898914	0.15606515694887174	0.2078131681940894	2.009669136168502	0.10931792451829121	0.24963699450674587	1.9922687844305966	0.1833742786869787	0.5773327001080742	2.0971916275443183	0.2652290595615797	0.1613125453928849	0.4134986437468987	0.26308549414577875	0.08991545778858252	0.16086283977793767	0.2685390365692151	0.07460081513958965	0.291400376448458	0.45547234053878893	0.16232809065427564	0.5238843537237243	0.5486306262739853	0.21409797680912435	0.8000544266055708	0.48176118903452714	0.1169478007325471	1.0462284046903676	0.35140786188956386	0.07996742638967534	1.1108865674062594	0.37579948629630516	0.10137622455783997	1.18449586111084	0.4099527101114193	0.1699553021509861	1.206206404049482	0.08206618089521445	0.19747908050187307	0.5362339971719263	0.026860180845316235	0.1860644503364233	0.8156177221126928	0.1300225639652837	0.04513904009696058	1.0359088204768891	0.21850357481954455	-0.030676933430642456	1.087327788534561	0.2034894407866864	-0.07838790665547021	1.1135309968260803	0.17111198784602352	-0.051941829695073764	1.1328527130190156
86	1.4333333333333333	0.393931407320223	0.19316898166889054	1.0810623939975588	0.40556414188230155	0.2807119427502049	1.5504371680107318	0.40666731747480145	0.36526535128936716	1.9568062388406946	0.36891075094404313	0.19629879772642106	2.0094894680262683	0.4513257440626001	0.2069721473821727	2.0013367925780274	0.3948912025300793	0.4785755807448058	2.03418349964287	0.16510442506644005	0.1991401830175646	1.0615925761861478	0.16094117343081932	0.3080769366496437	1.5681750433658765	0.1774965578715502	0.4660267383273749	1.9890998894965417	0.15687024217531273	0.22023229706378167	2.022141633518196	0.10424396005924896	0.263417694363822	2.0003267430448815	0.18341501442260974	0.5770988171233058	2.0966765252900923	0.2614465785122482	0.17360897409429132	0.41418316816687056	0.2631022246633012	0.09004210340187588	0.16080074717864215	0.26844900882488343	0.07462642483742567	0.2913746053527396	0.45540365213581235	0.16242820033830188	0.5238308083671218	0.5510144638227763	0.1991694025642929	0.7936158890996484	0.4922536029464144	0.12413098091338785	1.0390355152922144	0.3614335949751101	0.08365998396586138	1.110802624766382	0.3854385103700446	0.10016445518033372	1.18747395719041	0.43026438854875326	0.13222342242641716	1.1997040628368325	0.0752453074982388	0.18387183170367935	0.5361035237253482	0.026416915190076787	0.18469699458967292	0.8128281343362013	0.11397038182871273	0.043788041532816506	1.0338573064744574	0.20634304848283205	-0.030044120692197106	1.0877827894352756	0.18989515353962444	-0.05566136531240373	1.114485906752867	0.15788808143801802	-0.07350846579007782	1.1316437512656545
87	1.45	0.39816823375104105	0.18310519490346394	1.0786332729589316	0.4056376030441438	0.2806983809557829	1.55048027602648	0.4063428537040648	0.36376491527659166	1.960838793853965	0.36931260734549626	0.17101599478996876	1.9958354894782961	0.45115998905085397	0.2065176693903785	2.0016609106092713	0.3909770157476285	0.4963538549085312	2.0451698731044674	0.15868613819046357	0.19546611807420022	1.0696387390564817	0.16479769170112948	0.2909739540388353	1.5556661475240396	0.17736494041844889	0.4666368741495012	1.989410550389239	0.1643124091171269	0.22409840105403928	2.025822884334181	0.10905684536648201	0.2487239113201338	1.9954188297782502	0.18344600517161075	0.5776014282807982	2.097092255732725	0.26445214168810754	0.1841923139708215	0.4140270885911125	0.2630251050761788	0.09017372433992747	0.16085663445565002	0.2684121332622427	0.07458612575295101	0.2913455183269393	0.455415796390982	0.16247080134480466	0.5237158925928432	0.5551327041118983	0.20079397031065893	0.7935103622366312	0.5077578175847871	0.10739019246943188	1.037060107672997	0.37414729073856406	0.08149300449240277	1.113839289846799	0.404796194520154	0.09398197298159293	1.1891628064816275	0.4466935880298193	0.13186629182560541	1.1982225289417658	0.0820332173879429	0.19752836840593246	0.5361947890124538	0.026733494430823634	0.1830037382077387	0.8159250641324686	0.10277492398793482	0.02947279868214008	1.0314416556489077	0.19346184046974116	-0.020536311018514598	1.0876428736939883	0.1800873275799539	-0.048492840498164734	1.1126266124750304	0.1384886554281399	-0.08455109045922148	1.1217989533734127
